<svg width="48" height="49" viewBox="0 0 48 49" fill="none" xmlns="http://www.w3.org/2000/svg">
<g clip-path="url(#clip0_430_18364)">
<path d="M12 34.03V42.03" stroke="black" stroke-width="3" stroke-linecap="round" stroke-linejoin="round"/>
<path d="M8 38.03H16" stroke="black" stroke-width="3" stroke-linecap="round" stroke-linejoin="round"/>
<path d="M34 6.03003V14.03" stroke="black" stroke-width="3" stroke-linecap="round" stroke-linejoin="round"/>
<path d="M30 10.03H38" stroke="black" stroke-width="3" stroke-linecap="round" stroke-linejoin="round"/>
<path d="M13 10.03C13 13.896 16.134 17.03 20 17.03" stroke="black" stroke-width="3" stroke-linecap="round" stroke-linejoin="round"/>
<path d="M20 17.03C16.134 17.03 13 20.164 13 24.03" stroke="black" stroke-width="3" stroke-linecap="round" stroke-linejoin="round"/>
<path d="M13 24.03C13 20.164 9.866 17.03 6 17.03" stroke="black" stroke-width="3" stroke-linecap="round" stroke-linejoin="round"/>
<path d="M6 17.03C9.866 17.03 13 13.896 13 10.03" stroke="black" stroke-width="3" stroke-linecap="round" stroke-linejoin="round"/>
<path d="M23.2188 31.586C28.4047 31.586 32.6088 27.382 32.6088 22.196" stroke="black" stroke-width="3" stroke-linecap="round" stroke-linejoin="round"/>
<path d="M32.6094 22.196C32.6094 27.382 36.8134 31.586 41.9994 31.586" stroke="black" stroke-width="3" stroke-linecap="round" stroke-linejoin="round"/>
<path d="M41.9994 31.5861C36.8134 31.5861 32.6094 35.7901 32.6094 40.9761" stroke="black" stroke-width="3" stroke-linecap="round" stroke-linejoin="round"/>
<path d="M32.6107 40.9761C32.6107 35.7901 28.4067 31.5861 23.2207 31.5861" stroke="black" stroke-width="3" stroke-linecap="round" stroke-linejoin="round"/>
</g>
<defs>
<clipPath id="clip0_430_18364">
<rect width="48" height="48" fill="white" transform="translate(0 0.0300293)"/>
</clipPath>
</defs>
</svg>
